<svg width="7167" height="3223" viewBox="0 0 7167 3223" fill="none" xmlns="http://www.w3.org/2000/svg">
<path d="M1529.69 2054.75L1113 1125.34L1468.62 1070.73L1736.71 1656.23L1803.8 1005.33L2193.62 914.499L2010.21 1987.48L1529.69 2054.75Z" fill="#E62310" stroke="black" stroke-width="25"/>
<path d="M2400.79 1921.5L2369.29 927.5L2628.79 914L2843.79 1871.5L2400.79 1921.5Z" fill="#009BD9" stroke="black" stroke-width="25"/>
<path d="M2848.29 1098V750L3864.79 763.5V1177L3517.29 1120.5L3616.29 1773H3121.79L3189.29 1120.5L2848.29 1098Z" fill="#FCCF00" stroke="black" stroke-width="25"/>
<path d="M4641.21 935.38L4901.97 1327.86L4904.94 1332.34L4903.74 1337.58L4790.2 1831.12L4788.42 1838.86L4780.65 1840.53L4234.54 1958.24L4227.89 1959.68L4223.07 1954.87L3809.29 1541.61L3804.44 1536.76L3805.92 1530.07L3902.6 1091.61L3903.81 1086.1L3908.74 1083.37L4226.47 907.25L4229.65 905.486L4637.77 930.196L4641.21 935.38ZM4294.71 1275.79L4214.12 1423.69L4209.07 1432.96L4217.37 1439.49L4332.61 1530.12L4337.71 1534.14L4343.93 1532.27L4467.4 1495.16L4475.75 1492.65L4486.19 1320.21L4476.53 1317.45L4309.11 1269.75L4299.5 1267.01L4294.71 1275.79Z" fill="#44AF35"/>
<path d="M4641.21 935.38L4651.62 928.463L4651.62 928.462L4641.21 935.38ZM4901.97 1327.86L4891.55 1334.77L4891.55 1334.77L4901.97 1327.86ZM4904.94 1332.34L4917.12 1335.14L4918.33 1329.9L4915.35 1325.42L4904.94 1332.34ZM4903.74 1337.58L4891.55 1334.77L4891.55 1334.77L4903.74 1337.58ZM4790.2 1831.12L4802.38 1833.92L4802.38 1833.92L4790.2 1831.12ZM4788.42 1838.86L4791.05 1851.08L4798.82 1849.41L4800.6 1841.66L4788.42 1838.86ZM4780.65 1840.53L4783.29 1852.75L4783.29 1852.75L4780.65 1840.53ZM4234.54 1958.24L4237.17 1970.46L4237.17 1970.46L4234.54 1958.24ZM4227.89 1959.68L4219.06 1968.52L4223.87 1973.33L4230.52 1971.9L4227.89 1959.68ZM4223.07 1954.87L4214.24 1963.71L4214.24 1963.71L4223.07 1954.87ZM3809.29 1541.61L3818.13 1532.76L3818.13 1532.76L3809.29 1541.61ZM3804.44 1536.76L3792.24 1534.07L3790.76 1540.76L3795.61 1545.61L3804.44 1536.76ZM3805.92 1530.07L3818.13 1532.76L3818.13 1532.76L3805.92 1530.07ZM3902.6 1091.61L3914.8 1094.3L3914.8 1094.3L3902.6 1091.61ZM3903.81 1086.1L3897.75 1075.17L3892.82 1077.91L3891.6 1083.41L3903.81 1086.1ZM3908.74 1083.37L3902.68 1072.44L3902.68 1072.44L3908.74 1083.37ZM4226.47 907.25L4220.41 896.317L4220.41 896.317L4226.47 907.25ZM4229.65 905.486L4230.41 893.009L4226.77 892.789L4223.59 894.553L4229.65 905.486ZM4637.77 930.196L4648.18 923.279L4644.73 918.095L4638.52 917.719L4637.77 930.196ZM4294.71 1275.79L4283.73 1269.81L4283.73 1269.81L4294.71 1275.79ZM4214.12 1423.69L4225.1 1429.67L4225.1 1429.67L4214.12 1423.69ZM4209.07 1432.96L4198.09 1426.98L4193.04 1436.26L4201.34 1442.79L4209.07 1432.96ZM4217.37 1439.49L4209.65 1449.32V1449.32L4217.37 1439.49ZM4332.61 1530.12L4340.33 1520.3L4340.33 1520.3L4332.61 1530.12ZM4337.71 1534.14L4329.98 1543.96L4335.09 1547.98L4341.31 1546.11L4337.71 1534.14ZM4343.93 1532.27L4340.33 1520.3L4340.33 1520.3L4343.93 1532.27ZM4467.4 1495.16L4463.8 1483.19L4463.8 1483.19L4467.4 1495.16ZM4475.75 1492.65L4479.35 1504.63L4487.7 1502.12L4488.23 1493.41L4475.75 1492.65ZM4486.19 1320.21L4498.67 1320.96L4499.28 1310.94L4489.62 1308.18L4486.19 1320.21ZM4476.53 1317.45L4479.96 1305.43L4479.96 1305.43L4476.53 1317.45ZM4309.11 1269.75L4312.54 1257.73L4312.54 1257.73L4309.11 1269.75ZM4299.5 1267.01L4302.92 1254.99L4293.3 1252.25L4288.52 1261.03L4299.5 1267.01ZM4641.21 935.38L4630.8 942.297L4891.55 1334.77L4901.97 1327.86L4912.38 1320.94L4651.62 928.463L4641.21 935.38ZM4901.97 1327.86L4891.55 1334.77L4894.53 1339.25L4904.94 1332.34L4915.35 1325.42L4912.38 1320.94L4901.97 1327.86ZM4904.94 1332.34L4892.76 1329.53L4891.55 1334.77L4903.74 1337.58L4915.92 1340.38L4917.12 1335.14L4904.94 1332.34ZM4903.74 1337.58L4891.55 1334.77L4778.02 1828.31L4790.2 1831.12L4802.38 1833.92L4915.92 1340.38L4903.74 1337.58ZM4790.2 1831.12L4778.02 1828.31L4776.24 1836.06L4788.42 1838.86L4800.6 1841.66L4802.38 1833.92L4790.2 1831.12ZM4788.42 1838.86L4785.78 1826.64L4778.02 1828.31L4780.65 1840.53L4783.29 1852.75L4791.05 1851.08L4788.42 1838.86ZM4780.65 1840.53L4778.02 1828.31L4231.91 1946.02L4234.54 1958.24L4237.17 1970.46L4783.29 1852.75L4780.65 1840.53ZM4234.54 1958.24L4231.91 1946.02L4225.25 1947.46L4227.89 1959.68L4230.52 1971.9L4237.17 1970.46L4234.54 1958.24ZM4227.89 1959.68L4236.72 1950.83L4231.91 1946.02L4223.07 1954.87L4214.24 1963.71L4219.06 1968.52L4227.89 1959.68ZM4223.07 1954.87L4231.91 1946.02L3818.13 1532.76L3809.29 1541.61L3800.46 1550.45L4214.24 1963.71L4223.07 1954.87ZM3809.29 1541.61L3818.13 1532.76L3813.28 1527.92L3804.44 1536.76L3795.61 1545.61L3800.46 1550.45L3809.29 1541.61ZM3804.44 1536.76L3816.65 1539.46L3818.13 1532.76L3805.92 1530.07L3793.71 1527.38L3792.24 1534.07L3804.44 1536.76ZM3805.92 1530.07L3818.13 1532.76L3914.8 1094.3L3902.6 1091.61L3890.39 1088.92L3793.71 1527.38L3805.92 1530.07ZM3902.6 1091.61L3914.8 1094.3L3916.02 1088.79L3903.81 1086.1L3891.6 1083.41L3890.39 1088.92L3902.6 1091.61ZM3903.81 1086.1L3909.87 1097.04L3914.8 1094.3L3908.74 1083.37L3902.68 1072.44L3897.75 1075.17L3903.81 1086.1ZM3908.74 1083.37L3914.8 1094.3L4232.53 918.183L4226.47 907.25L4220.41 896.317L3902.68 1072.44L3908.74 1083.37ZM4226.47 907.25L4232.53 918.183L4235.71 916.419L4229.65 905.486L4223.59 894.553L4220.41 896.317L4226.47 907.25ZM4229.65 905.486L4228.89 917.963L4637.01 942.674L4637.77 930.196L4638.52 917.719L4230.41 893.009L4229.65 905.486ZM4637.77 930.196L4627.35 937.114L4630.8 942.297L4641.21 935.38L4651.62 928.462L4648.18 923.279L4637.77 930.196ZM4294.71 1275.79L4283.73 1269.81L4203.15 1417.71L4214.12 1423.69L4225.1 1429.67L4305.69 1281.77L4294.71 1275.79ZM4214.12 1423.69L4203.15 1417.71L4198.09 1426.98L4209.07 1432.96L4220.05 1438.95L4225.1 1429.67L4214.12 1423.69ZM4209.07 1432.96L4201.34 1442.79L4209.65 1449.32L4217.37 1439.49L4225.1 1429.67L4216.8 1423.14L4209.07 1432.96ZM4217.37 1439.49L4209.65 1449.32L4324.88 1539.95L4332.61 1530.12L4340.33 1520.3L4225.1 1429.67L4217.37 1439.49ZM4332.61 1530.12L4324.88 1539.95L4329.98 1543.96L4337.71 1534.14L4345.44 1524.31L4340.33 1520.3L4332.61 1530.12ZM4337.71 1534.14L4341.31 1546.11L4347.53 1544.24L4343.93 1532.27L4340.33 1520.3L4334.11 1522.17L4337.71 1534.14ZM4343.93 1532.27L4347.53 1544.24L4471 1507.14L4467.4 1495.16L4463.8 1483.19L4340.33 1520.3L4343.93 1532.27ZM4467.4 1495.16L4471 1507.14L4479.35 1504.63L4475.75 1492.65L4472.16 1480.68L4463.8 1483.19L4467.4 1495.16ZM4475.75 1492.65L4488.23 1493.41L4498.67 1320.96L4486.19 1320.21L4473.72 1319.45L4463.28 1491.9L4475.75 1492.65ZM4486.19 1320.21L4489.62 1308.18L4479.96 1305.43L4476.53 1317.45L4473.11 1329.47L4482.77 1332.23L4486.19 1320.21ZM4476.53 1317.45L4479.96 1305.43L4312.54 1257.73L4309.11 1269.75L4305.69 1281.77L4473.11 1329.47L4476.53 1317.45ZM4309.11 1269.75L4312.54 1257.73L4302.92 1254.99L4299.5 1267.01L4296.07 1279.03L4305.69 1281.77L4309.11 1269.75ZM4299.5 1267.01L4288.52 1261.03L4283.73 1269.81L4294.71 1275.79L4305.69 1281.77L4310.47 1272.99L4299.5 1267.01Z" fill="black"/>
<path d="M5676.13 1054.51L5868.19 1278.19L5871.84 1282.44L5871.1 1287.99L5829.63 1598.54L5828.99 1603.35L5825.27 1606.47L5678.26 1729.69L5861.07 1991.44L5871.95 2007.01L5853.34 2010.84L5537.02 2075.92L5529.55 2077.46L5524.76 2071.51L5297.47 1788.97L5287.52 2010.4L5286.86 2025.06L4950.76 1955.31L4952.24 1943.83L5077.5 973.538L5079.14 960.862L5091.78 962.78L5668.53 1050.29L5673.11 1050.99L5676.13 1054.51ZM5315.86 1488.25L5409.73 1507.73L5414.32 1504.06L5526.96 1414.07L5539.24 1404.26L5526.91 1394.5L5378.22 1276.84L5362.34 1264.27L5315.86 1488.25Z" fill="#009BD9"/>
<path d="M5676.13 1054.51L5685.62 1046.36L5685.62 1046.36L5676.13 1054.51ZM5868.19 1278.19L5877.68 1270.05L5877.67 1270.05L5868.19 1278.19ZM5871.84 1282.44L5884.23 1284.1L5884.97 1278.55L5881.32 1274.3L5871.84 1282.44ZM5871.1 1287.99L5883.49 1289.65L5883.49 1289.65L5871.1 1287.99ZM5829.63 1598.54L5817.24 1596.89L5817.24 1596.89L5829.63 1598.54ZM5828.99 1603.35L5837.02 1612.93L5840.74 1609.82L5841.38 1605.01L5828.99 1603.35ZM5825.27 1606.47L5833.3 1616.05L5833.3 1616.05L5825.27 1606.47ZM5678.26 1729.69L5670.24 1720.11L5661.46 1727.46L5668.02 1736.85L5678.26 1729.69ZM5861.07 1991.44L5871.32 1984.28V1984.28L5861.07 1991.44ZM5871.95 2007.01L5874.47 2019.25L5893.07 2015.42L5882.2 1999.85L5871.95 2007.01ZM5853.34 2010.84L5850.82 1998.59L5850.82 1998.59L5853.34 2010.84ZM5537.02 2075.92L5539.54 2088.17L5539.54 2088.17L5537.02 2075.92ZM5529.55 2077.46L5519.81 2085.3L5524.59 2091.24L5532.06 2089.7L5529.55 2077.46ZM5524.76 2071.51L5534.5 2063.68L5534.5 2063.68L5524.76 2071.51ZM5297.47 1788.97L5307.21 1781.13L5286.47 1755.35L5284.99 1788.41L5297.47 1788.97ZM5287.52 2010.4L5275.03 2009.84V2009.84L5287.52 2010.4ZM5286.86 2025.06L5284.32 2037.3L5298.69 2040.28L5299.34 2025.62L5286.86 2025.06ZM4950.76 1955.31L4938.36 1953.71L4936.88 1965.2L4948.22 1967.55L4950.76 1955.31ZM4952.24 1943.83L4964.64 1945.43L4964.64 1945.43L4952.24 1943.83ZM5077.5 973.538L5065.11 971.937L5065.11 971.937L5077.5 973.538ZM5079.14 960.862L5081.02 948.503L5068.38 946.586L5066.74 959.261L5079.14 960.862ZM5091.78 962.78L5089.9 975.138L5089.9 975.138L5091.78 962.78ZM5668.53 1050.29L5666.65 1062.65L5666.65 1062.65L5668.53 1050.29ZM5673.11 1050.99L5682.59 1042.84L5679.57 1039.32L5674.99 1038.63L5673.11 1050.99ZM5315.86 1488.25L5303.62 1485.71L5301.08 1497.95L5313.32 1500.49L5315.86 1488.25ZM5409.73 1507.73L5407.19 1519.97L5412.95 1521.16L5417.54 1517.5L5409.73 1507.73ZM5414.32 1504.06L5406.52 1494.3L5406.52 1494.3L5414.32 1504.06ZM5526.96 1414.07L5519.15 1404.31L5519.15 1404.31L5526.96 1414.07ZM5539.24 1404.26L5547.04 1414.03L5559.32 1404.21L5547 1394.46L5539.24 1404.26ZM5526.91 1394.5L5519.15 1404.31L5519.15 1404.31L5526.91 1394.5ZM5378.22 1276.84L5385.97 1267.04L5385.97 1267.04L5378.22 1276.84ZM5362.34 1264.27L5370.09 1254.47L5354.21 1241.9L5350.1 1261.73L5362.34 1264.27ZM5676.13 1054.51L5666.65 1062.65L5858.71 1286.34L5868.19 1278.19L5877.67 1270.05L5685.62 1046.36L5676.13 1054.51ZM5868.19 1278.19L5858.71 1286.33L5862.35 1290.58L5871.84 1282.44L5881.32 1274.3L5877.68 1270.05L5868.19 1278.19ZM5871.84 1282.44L5859.45 1280.79L5858.71 1286.34L5871.1 1287.99L5883.49 1289.65L5884.23 1284.1L5871.84 1282.44ZM5871.1 1287.99L5858.71 1286.34L5817.24 1596.89L5829.63 1598.54L5842.02 1600.2L5883.49 1289.65L5871.1 1287.99ZM5829.63 1598.54L5817.24 1596.89L5816.6 1601.7L5828.99 1603.35L5841.38 1605.01L5842.02 1600.2L5829.63 1598.54ZM5828.99 1603.35L5820.96 1593.77L5817.24 1596.89L5825.27 1606.47L5833.3 1616.05L5837.02 1612.93L5828.99 1603.35ZM5825.27 1606.47L5817.24 1596.89L5670.24 1720.11L5678.26 1729.69L5686.29 1739.27L5833.3 1616.05L5825.27 1606.47ZM5678.26 1729.69L5668.02 1736.85L5850.82 1998.59L5861.07 1991.44L5871.32 1984.28L5688.51 1722.53L5678.26 1729.69ZM5861.07 1991.44L5850.82 1998.59L5861.7 2014.17L5871.95 2007.01L5882.2 1999.85L5871.32 1984.28L5861.07 1991.44ZM5871.95 2007.01L5869.43 1994.76L5850.82 1998.59L5853.34 2010.84L5855.86 2023.08L5874.47 2019.25L5871.95 2007.01ZM5853.34 2010.84L5850.82 1998.59L5534.5 2063.68L5537.02 2075.92L5539.54 2088.17L5855.86 2023.08L5853.34 2010.84ZM5537.02 2075.92L5534.5 2063.68L5527.03 2065.22L5529.55 2077.46L5532.06 2089.7L5539.54 2088.17L5537.02 2075.92ZM5529.55 2077.46L5539.29 2069.63L5534.5 2063.68L5524.76 2071.51L5515.02 2079.35L5519.81 2085.3L5529.55 2077.46ZM5524.76 2071.51L5534.5 2063.68L5307.21 1781.13L5297.47 1788.97L5287.73 1796.8L5515.02 2079.35L5524.76 2071.51ZM5297.47 1788.97L5284.99 1788.41L5275.03 2009.84L5287.52 2010.4L5300 2010.96L5309.96 1789.53L5297.47 1788.97ZM5287.52 2010.4L5275.03 2009.84L5274.37 2024.5L5286.86 2025.06L5299.34 2025.62L5300 2010.96L5287.52 2010.4ZM5286.86 2025.06L5289.4 2012.82L4953.3 1943.07L4950.76 1955.31L4948.22 1967.55L5284.32 2037.3L5286.86 2025.06ZM4950.76 1955.31L4963.16 1956.91L4964.64 1945.43L4952.24 1943.83L4939.85 1942.23L4938.36 1953.71L4950.76 1955.31ZM4952.24 1943.83L4964.64 1945.43L5089.9 975.138L5077.5 973.538L5065.11 971.937L4939.85 1942.23L4952.24 1943.83ZM5077.5 973.538L5089.9 975.139L5091.54 962.463L5079.14 960.862L5066.74 959.261L5065.11 971.937L5077.5 973.538ZM5079.14 960.862L5077.26 973.22L5089.9 975.138L5091.78 962.78L5093.65 950.421L5081.02 948.503L5079.14 960.862ZM5091.78 962.78L5089.9 975.138L5666.65 1062.65L5668.53 1050.29L5670.4 1037.93L5093.65 950.421L5091.78 962.78ZM5668.53 1050.29L5666.65 1062.65L5671.24 1063.34L5673.11 1050.99L5674.99 1038.63L5670.4 1037.93L5668.53 1050.29ZM5673.11 1050.99L5663.63 1059.13L5666.65 1062.65L5676.13 1054.51L5685.62 1046.36L5682.59 1042.84L5673.11 1050.99ZM5315.86 1488.25L5313.32 1500.49L5407.19 1519.97L5409.73 1507.73L5412.27 1495.49L5318.4 1476.01L5315.86 1488.25ZM5409.73 1507.73L5417.54 1517.5L5422.13 1513.83L5414.32 1504.06L5406.52 1494.3L5401.93 1497.97L5409.73 1507.73ZM5414.32 1504.06L5422.13 1513.83L5534.76 1423.84L5526.96 1414.07L5519.15 1404.31L5406.52 1494.3L5414.32 1504.06ZM5526.96 1414.07L5534.76 1423.84L5547.04 1414.03L5539.24 1404.26L5531.44 1394.49L5519.15 1404.31L5526.96 1414.07ZM5539.24 1404.26L5547 1394.46L5534.67 1384.7L5526.91 1394.5L5519.15 1404.31L5531.48 1414.06L5539.24 1404.26ZM5526.91 1394.5L5534.67 1384.7L5385.97 1267.04L5378.22 1276.84L5370.46 1286.64L5519.15 1404.31L5526.91 1394.5ZM5378.22 1276.84L5385.97 1267.04L5370.09 1254.47L5362.34 1264.27L5354.58 1274.07L5370.46 1286.64L5378.22 1276.84ZM5362.34 1264.27L5350.1 1261.73L5303.62 1485.71L5315.86 1488.25L5328.1 1490.79L5374.58 1266.81L5362.34 1264.27Z" fill="black"/>
<path d="M2167.2 1722.28L2346.95 1855.64L2351.7 1859.16L2351.99 1865.07L2363.59 2099.9L2363.86 2105.36L2360.03 2109.26L2267.33 2203.95L2417.08 2349.58L2429.81 2361.97L2413.85 2369.77L2215.98 2466.54L2208.72 2470.09L2202.5 2464.92L2010.11 2305.08L2027.21 2453.88L2028.81 2467.81H1780L1779.09 2456.28L1724.01 1751.78L1723 1738.88L1735.93 1738.31L2159.21 1719.83L2163.64 1719.64L2167.2 1722.28ZM1973.3 2087.29H2050.32L2054.07 2082.84L2118.21 2006.74L2128.26 1994.82L2114.44 1987.6L1991.59 1923.46L1973.3 1913.91V2087.29Z" fill="#FCCF00"/>
<path d="M2167.2 1722.28L2174.65 1712.24L2174.65 1712.24L2167.2 1722.28ZM2346.95 1855.64L2339.5 1865.68L2339.5 1865.68L2346.95 1855.64ZM2351.7 1859.16L2364.18 1858.55L2363.89 1852.64L2359.15 1849.12L2351.7 1859.16ZM2351.99 1865.07L2364.47 1864.45L2364.47 1864.45L2351.99 1865.07ZM2363.59 2099.9L2351.1 2100.52V2100.52L2363.59 2099.9ZM2363.86 2105.36L2372.79 2114.1L2376.61 2110.2L2376.34 2104.74L2363.86 2105.36ZM2360.03 2109.26L2368.97 2118.01L2368.97 2118.01L2360.03 2109.26ZM2267.33 2203.95L2258.4 2195.2L2249.63 2204.16L2258.62 2212.91L2267.33 2203.95ZM2417.08 2349.58L2408.36 2358.55L2408.36 2358.55L2417.08 2349.58ZM2429.81 2361.97L2435.3 2373.2L2451.26 2365.4L2438.53 2353.01L2429.81 2361.97ZM2413.85 2369.77L2408.36 2358.55L2408.36 2358.55L2413.85 2369.77ZM2215.98 2466.54L2210.49 2455.31L2210.49 2455.31L2215.98 2466.54ZM2208.72 2470.09L2200.73 2479.7L2206.95 2484.87L2214.21 2481.32L2208.72 2470.09ZM2202.5 2464.92L2210.49 2455.31L2210.49 2455.31L2202.5 2464.92ZM2010.11 2305.08L2018.1 2295.46L1994.14 2275.56L1997.69 2306.51L2010.11 2305.08ZM2027.21 2453.88L2014.79 2455.31V2455.31L2027.21 2453.88ZM2028.81 2467.81V2480.31H2042.83L2041.23 2466.38L2028.81 2467.81ZM1780 2467.81L1767.53 2468.78L1768.43 2480.31H1780V2467.81ZM1779.09 2456.28L1766.63 2457.25L1766.63 2457.25L1779.09 2456.28ZM1724.01 1751.78L1736.47 1750.8L1736.47 1750.8L1724.01 1751.78ZM1723 1738.88L1722.45 1726.39L1709.53 1726.95L1710.54 1739.85L1723 1738.88ZM1735.93 1738.31L1735.38 1725.82L1735.38 1725.82L1735.93 1738.31ZM2159.21 1719.83L2158.66 1707.34L2158.66 1707.34L2159.21 1719.83ZM2163.64 1719.64L2171.09 1709.6L2167.53 1706.96L2163.09 1707.15L2163.64 1719.64ZM1973.3 2087.29H1960.8V2099.79H1973.3V2087.29ZM2050.32 2087.29V2099.79H2056.13L2059.88 2095.34L2050.32 2087.29ZM2054.07 2082.84L2063.63 2090.9L2063.63 2090.9L2054.07 2082.84ZM2118.21 2006.74L2108.66 1998.68L2108.66 1998.68L2118.21 2006.74ZM2128.26 1994.82L2137.82 2002.87L2147.87 1990.95L2134.05 1983.74L2128.26 1994.82ZM2114.44 1987.6L2108.66 1998.68L2108.66 1998.68L2114.44 1987.6ZM1991.59 1923.46L1985.8 1934.54L1985.8 1934.54L1991.59 1923.46ZM1973.3 1913.91L1979.09 1902.83L1960.8 1893.28V1913.91H1973.3ZM2167.2 1722.28L2159.75 1732.32L2339.5 1865.68L2346.95 1855.64L2354.4 1845.6L2174.65 1712.24L2167.2 1722.28ZM2346.95 1855.64L2339.5 1865.68L2344.25 1869.2L2351.7 1859.16L2359.15 1849.12L2354.4 1845.6L2346.95 1855.64ZM2351.7 1859.16L2339.21 1859.78L2339.5 1865.68L2351.99 1865.07L2364.47 1864.45L2364.18 1858.55L2351.7 1859.16ZM2351.99 1865.07L2339.5 1865.68L2351.1 2100.52L2363.59 2099.9L2376.07 2099.28L2364.47 1864.45L2351.99 1865.07ZM2363.59 2099.9L2351.1 2100.52L2351.37 2105.97L2363.86 2105.36L2376.34 2104.74L2376.07 2099.28L2363.59 2099.9ZM2363.86 2105.36L2354.92 2096.61L2351.1 2100.52L2360.03 2109.26L2368.97 2118.01L2372.79 2114.1L2363.86 2105.36ZM2360.03 2109.26L2351.1 2100.52L2258.4 2195.2L2267.33 2203.95L2276.26 2212.69L2368.97 2118.01L2360.03 2109.26ZM2267.33 2203.95L2258.62 2212.91L2408.36 2358.55L2417.08 2349.58L2425.79 2340.62L2276.05 2194.98L2267.33 2203.95ZM2417.08 2349.58L2408.36 2358.55L2421.1 2370.93L2429.81 2361.97L2438.53 2353.01L2425.79 2340.62L2417.08 2349.58ZM2429.81 2361.97L2424.32 2350.74L2408.36 2358.55L2413.85 2369.77L2419.34 2381L2435.3 2373.2L2429.81 2361.97ZM2413.85 2369.77L2408.36 2358.55L2210.49 2455.31L2215.98 2466.54L2221.47 2477.76L2419.34 2381L2413.85 2369.77ZM2215.98 2466.54L2210.49 2455.31L2203.23 2458.86L2208.72 2470.09L2214.21 2481.32L2221.47 2477.76L2215.98 2466.54ZM2208.72 2470.09L2216.71 2460.47L2210.49 2455.31L2202.5 2464.92L2194.51 2474.54L2200.73 2479.7L2208.72 2470.09ZM2202.5 2464.92L2210.49 2455.31L2018.1 2295.46L2010.11 2305.08L2002.12 2314.69L2194.51 2474.54L2202.5 2464.92ZM2010.11 2305.08L1997.69 2306.51L2014.79 2455.31L2027.21 2453.88L2039.63 2452.45L2022.53 2303.65L2010.11 2305.08ZM2027.21 2453.88L2014.79 2455.31L2016.39 2469.23L2028.81 2467.81L2041.23 2466.38L2039.63 2452.45L2027.21 2453.88ZM2028.81 2467.81V2455.31H1780V2467.81V2480.31H2028.81V2467.81ZM1780 2467.81L1792.46 2466.83L1791.56 2455.31L1779.09 2456.28L1766.63 2457.25L1767.53 2468.78L1780 2467.81ZM1779.09 2456.28L1791.56 2455.31L1736.47 1750.8L1724.01 1751.78L1711.55 1752.75L1766.63 2457.25L1779.09 2456.28ZM1724.01 1751.78L1736.47 1750.8L1735.46 1737.9L1723 1738.88L1710.54 1739.85L1711.55 1752.75L1724.01 1751.78ZM1723 1738.88L1723.55 1751.37L1736.47 1750.8L1735.93 1738.31L1735.38 1725.82L1722.45 1726.39L1723 1738.88ZM1735.93 1738.31L1736.47 1750.8L2159.75 1732.32L2159.21 1719.83L2158.66 1707.34L1735.38 1725.82L1735.93 1738.31ZM2159.21 1719.83L2159.75 1732.32L2164.18 1732.12L2163.64 1719.64L2163.09 1707.15L2158.66 1707.34L2159.21 1719.83ZM2163.64 1719.64L2156.19 1729.68L2159.76 1732.32L2167.2 1722.28L2174.65 1712.24L2171.09 1709.6L2163.64 1719.64ZM1973.3 2087.29V2099.79H2050.32V2087.29V2074.79H1973.3V2087.29ZM2050.32 2087.29L2059.88 2095.34L2063.63 2090.9L2054.07 2082.84L2044.51 2074.79L2040.76 2079.23L2050.32 2087.29ZM2054.07 2082.84L2063.63 2090.9L2127.77 2014.8L2118.21 2006.74L2108.66 1998.68L2044.51 2074.79L2054.07 2082.84ZM2118.21 2006.74L2127.77 2014.8L2137.82 2002.87L2128.26 1994.82L2118.7 1986.76L2108.66 1998.68L2118.21 2006.74ZM2128.26 1994.82L2134.05 1983.74L2120.23 1976.52L2114.44 1987.6L2108.66 1998.68L2122.48 2005.9L2128.26 1994.82ZM2114.44 1987.6L2120.23 1976.52L1997.37 1912.38L1991.59 1923.46L1985.8 1934.54L2108.66 1998.68L2114.44 1987.6ZM1991.59 1923.46L1997.37 1912.38L1979.09 1902.83L1973.3 1913.91L1967.52 1924.99L1985.8 1934.54L1991.59 1923.46ZM1973.3 1913.91H1960.8V2087.29H1973.3H1985.8V1913.91H1973.3Z" fill="black"/>
<path d="M2874.87 1724.14L3187.25 2394.95L3193.75 2408.9L3178.76 2412.4C3128.45 2424.13 3053.22 2441.06 2991.06 2453.73C2960.02 2460.06 2932.04 2465.36 2912.02 2468.41C2902.1 2469.92 2893.69 2470.94 2887.73 2471.2C2884.99 2471.32 2881.68 2471.34 2878.8 2470.74C2877.65 2470.5 2874.44 2469.78 2871.62 2467.22C2869.97 2465.72 2868.26 2463.4 2867.57 2460.23C2866.99 2457.53 2867.34 2455.12 2867.95 2453.26C2867.97 2453.14 2867.99 2452.96 2868.01 2452.73C2868.1 2451.79 2868.17 2450.37 2868.19 2448.42C2868.22 2444.54 2868.04 2439.26 2867.67 2432.79C2866.92 2419.88 2865.45 2402.94 2863.6 2384.44C2860.35 2352 2855.99 2315.16 2852.53 2287.69H2622.89L2565.92 2461.02L2562.61 2471.1L2552.12 2469.47L2291.2 2428.88L2273.58 2426.14L2282.16 2410.52L2648.91 1742.25L2652.1 1736.43L2658.71 1735.82L2862.38 1716.97L2871.15 1716.16L2874.87 1724.14ZM2705.14 1973.14L2701.95 1980.86L2660.27 2081.61L2653.13 2098.88H2841.63L2837.58 2083.25L2811.49 1982.5L2809.06 1973.14H2705.14Z" fill="#E62310"/>
<path d="M2874.87 1724.14L2886.2 1718.87L2886.2 1718.87L2874.87 1724.14ZM3187.25 2394.95L3175.92 2400.22L3175.92 2400.22L3187.25 2394.95ZM3193.75 2408.9L3196.59 2421.07L3211.58 2417.58L3205.08 2403.62L3193.75 2408.9ZM3178.76 2412.4L3175.92 2400.22L3175.92 2400.22L3178.76 2412.4ZM2991.06 2453.73L2988.56 2441.48V2441.48L2991.06 2453.73ZM2912.02 2468.41L2910.14 2456.05H2910.14L2912.02 2468.41ZM2887.73 2471.2L2888.28 2483.69H2888.28L2887.73 2471.2ZM2878.8 2470.74L2876.26 2482.98L2876.26 2482.98L2878.8 2470.74ZM2871.62 2467.22L2863.23 2476.48L2863.23 2476.48L2871.62 2467.22ZM2867.57 2460.23L2855.36 2462.89L2855.36 2462.89L2867.57 2460.23ZM2867.95 2453.26L2879.82 2457.18L2880.18 2456.09L2880.34 2454.96L2867.95 2453.26ZM2868.01 2452.73L2880.45 2453.93L2880.45 2453.93L2868.01 2452.73ZM2868.19 2448.42L2855.69 2448.32V2448.32L2868.19 2448.42ZM2867.67 2432.79L2880.15 2432.07V2432.07L2867.67 2432.79ZM2863.6 2384.44L2851.16 2385.69V2385.69L2863.6 2384.44ZM2852.53 2287.69L2864.93 2286.13L2863.55 2275.19H2852.53V2287.69ZM2622.89 2287.69V2275.19H2613.84L2611.02 2283.79L2622.89 2287.69ZM2565.92 2461.02L2554.04 2457.12L2554.04 2457.12L2565.92 2461.02ZM2562.61 2471.1L2560.69 2483.45L2571.17 2485.08L2574.48 2475L2562.61 2471.1ZM2552.12 2469.47L2554.04 2457.12H2554.04L2552.12 2469.47ZM2291.2 2428.88L2289.27 2441.23H2289.27L2291.2 2428.88ZM2273.58 2426.14L2262.62 2420.13L2254.05 2435.75L2271.66 2438.49L2273.58 2426.14ZM2282.16 2410.52L2293.12 2416.53L2293.12 2416.53L2282.16 2410.52ZM2648.91 1742.25L2637.95 1736.24L2637.95 1736.24L2648.91 1742.25ZM2652.1 1736.43L2650.95 1723.98L2644.34 1724.59L2641.14 1730.41L2652.1 1736.43ZM2658.71 1735.82L2659.86 1748.27L2659.87 1748.27L2658.71 1735.82ZM2862.38 1716.97L2861.23 1704.53L2861.23 1704.53L2862.38 1716.97ZM2871.15 1716.16L2882.48 1710.88L2878.76 1702.9L2870 1703.72L2871.15 1716.16ZM2705.14 1973.14V1960.64H2696.79L2693.59 1968.36L2705.14 1973.14ZM2701.95 1980.86L2690.4 1976.08L2690.4 1976.08L2701.95 1980.86ZM2660.27 2081.61L2648.72 2076.83V2076.83L2660.27 2081.61ZM2653.13 2098.88L2641.58 2094.11L2634.43 2111.38H2653.13V2098.88ZM2841.63 2098.88V2111.38H2857.78L2853.73 2095.75L2841.63 2098.88ZM2837.58 2083.25L2849.68 2080.12L2849.68 2080.12L2837.58 2083.25ZM2811.49 1982.5L2799.39 1985.64L2799.39 1985.64L2811.49 1982.5ZM2809.06 1973.14L2821.17 1970L2818.74 1960.64H2809.06V1973.14ZM2874.87 1724.14L2863.53 1729.42L3175.92 2400.22L3187.25 2394.95L3198.59 2389.67L2886.2 1718.87L2874.87 1724.14ZM3187.25 2394.95L3175.92 2400.22L3182.42 2414.18L3193.75 2408.9L3205.08 2403.62L3198.59 2389.67L3187.25 2394.95ZM3193.75 2408.9L3190.92 2396.73L3175.92 2400.22L3178.76 2412.4L3181.6 2424.57L3196.59 2421.07L3193.75 2408.9ZM3178.76 2412.4L3175.92 2400.22C3125.67 2411.94 3050.56 2428.85 2988.56 2441.48L2991.06 2453.73L2993.55 2465.98C3055.87 2453.28 3131.23 2436.31 3181.6 2424.57L3178.76 2412.4ZM2991.06 2453.73L2988.56 2441.48C2957.56 2447.8 2929.84 2453.05 2910.14 2456.05L2912.02 2468.41L2913.9 2480.76C2934.25 2477.67 2962.47 2472.31 2993.55 2465.98L2991.06 2453.73ZM2912.02 2468.41L2910.14 2456.05C2900.29 2457.55 2892.44 2458.49 2887.19 2458.71L2887.73 2471.2L2888.28 2483.69C2894.95 2483.4 2903.91 2482.29 2913.9 2480.76L2912.02 2468.41ZM2887.73 2471.2L2887.19 2458.71C2884.59 2458.83 2882.61 2458.77 2881.35 2458.5L2878.8 2470.74L2876.26 2482.98C2880.76 2483.92 2885.38 2483.82 2888.28 2483.69L2887.73 2471.2ZM2878.8 2470.74L2881.35 2458.5C2881.07 2458.45 2880.83 2458.39 2880.57 2458.28C2880.29 2458.17 2880.12 2458.05 2880.02 2457.97L2871.62 2467.22L2863.23 2476.48C2868.6 2481.35 2874.54 2482.63 2876.26 2482.98L2878.8 2470.74ZM2871.62 2467.22L2880.02 2457.97C2879.97 2457.92 2879.91 2457.85 2879.86 2457.77C2879.83 2457.72 2879.81 2457.67 2879.79 2457.58L2867.57 2460.23L2855.36 2462.89C2856.7 2469.09 2860.05 2473.6 2863.23 2476.48L2871.62 2467.22ZM2867.57 2460.23L2879.79 2457.58C2879.77 2457.51 2879.77 2457.45 2879.77 2457.4C2879.78 2457.34 2879.79 2457.26 2879.82 2457.18L2867.95 2453.26L2856.08 2449.34C2854.91 2452.89 2854.21 2457.6 2855.36 2462.89L2867.57 2460.23ZM2867.95 2453.26L2880.34 2454.96C2880.37 2454.7 2880.41 2454.36 2880.45 2453.93L2868.01 2452.73L2855.57 2451.53C2855.57 2451.56 2855.57 2451.57 2855.57 2451.57C2855.57 2451.57 2855.57 2451.57 2855.57 2451.57C2855.57 2451.57 2855.57 2451.57 2855.57 2451.57L2867.95 2453.26ZM2868.01 2452.73L2880.45 2453.93C2880.59 2452.48 2880.67 2450.67 2880.69 2448.53L2868.19 2448.42L2855.69 2448.32C2855.67 2450.08 2855.61 2451.09 2855.57 2451.53L2868.01 2452.73ZM2868.19 2448.42L2880.69 2448.53C2880.72 2444.24 2880.53 2438.65 2880.15 2432.07L2867.67 2432.79L2855.19 2433.51C2855.56 2439.87 2855.72 2444.84 2855.69 2448.32L2868.19 2448.42ZM2867.67 2432.79L2880.15 2432.07C2879.39 2418.9 2877.89 2401.76 2876.04 2383.2L2863.6 2384.44L2851.16 2385.69C2853.01 2404.13 2854.46 2420.86 2855.19 2433.51L2867.67 2432.79ZM2863.6 2384.44L2876.04 2383.2C2872.78 2350.61 2868.4 2313.66 2864.93 2286.13L2852.53 2287.69L2840.12 2289.26C2843.58 2316.66 2847.93 2353.39 2851.16 2385.69L2863.6 2384.44ZM2852.53 2287.69V2275.19H2622.89V2287.69V2300.19H2852.53V2287.69ZM2622.89 2287.69L2611.02 2283.79L2554.04 2457.12L2565.92 2461.02L2577.79 2464.93L2634.77 2291.6L2622.89 2287.69ZM2565.92 2461.02L2554.04 2457.12L2550.73 2467.2L2562.61 2471.1L2574.48 2475L2577.79 2464.93L2565.92 2461.02ZM2562.61 2471.1L2564.53 2458.75L2554.04 2457.12L2552.12 2469.47L2550.2 2481.82L2560.69 2483.45L2562.61 2471.1ZM2552.12 2469.47L2554.04 2457.12L2293.12 2416.53L2291.2 2428.88L2289.27 2441.23L2550.2 2481.82L2552.12 2469.47ZM2291.2 2428.88L2293.12 2416.53L2275.5 2413.79L2273.58 2426.14L2271.66 2438.49L2289.27 2441.23L2291.2 2428.88ZM2273.58 2426.14L2284.54 2432.16L2293.12 2416.53L2282.16 2410.52L2271.2 2404.5L2262.62 2420.13L2273.58 2426.14ZM2282.16 2410.52L2293.12 2416.53L2659.86 1748.26L2648.91 1742.25L2637.95 1736.24L2271.2 2404.5L2282.16 2410.52ZM2648.91 1742.25L2659.86 1748.27L2663.06 1742.44L2652.1 1736.43L2641.14 1730.41L2637.95 1736.24L2648.91 1742.25ZM2652.1 1736.43L2653.25 1748.88L2659.86 1748.27L2658.71 1735.82L2657.56 1723.37L2650.95 1723.98L2652.1 1736.43ZM2658.71 1735.82L2659.87 1748.27L2863.53 1729.42L2862.38 1716.97L2861.23 1704.53L2657.56 1723.37L2658.71 1735.82ZM2862.38 1716.97L2863.53 1729.42L2872.3 1728.61L2871.15 1716.16L2870 1703.72L2861.23 1704.53L2862.38 1716.97ZM2871.15 1716.16L2859.82 1721.44L2863.53 1729.42L2874.87 1724.14L2886.2 1718.87L2882.48 1710.88L2871.15 1716.16ZM2705.14 1973.14L2693.59 1968.36L2690.4 1976.08L2701.95 1980.86L2713.5 1985.64L2716.69 1977.92L2705.14 1973.14ZM2701.95 1980.86L2690.4 1976.08L2648.72 2076.83L2660.27 2081.61L2671.82 2086.38L2713.5 1985.64L2701.95 1980.86ZM2660.27 2081.61L2648.72 2076.83L2641.58 2094.11L2653.13 2098.88L2664.68 2103.66L2671.82 2086.38L2660.27 2081.61ZM2653.13 2098.88V2111.38H2841.63V2098.88V2086.38H2653.13V2098.88ZM2841.63 2098.88L2853.73 2095.75L2849.68 2080.12L2837.58 2083.25L2825.48 2086.38L2829.53 2102.02L2841.63 2098.88ZM2837.58 2083.25L2849.68 2080.12L2823.59 1979.37L2811.49 1982.5L2799.39 1985.64L2825.48 2086.38L2837.58 2083.25ZM2811.49 1982.5L2823.59 1979.37L2821.17 1970L2809.06 1973.14L2796.96 1976.27L2799.39 1985.64L2811.49 1982.5ZM2809.06 1973.14V1960.64H2705.14V1973.14V1985.64H2809.06V1973.14Z" fill="black"/>
<path d="M4129.88 1719.98L4442.27 2390.78L4448.77 2404.74L4433.78 2408.23C4383.46 2419.96 4308.23 2436.9 4246.07 2449.57C4215.03 2455.89 4187.06 2461.2 4167.03 2464.25C4157.11 2465.76 4148.71 2466.78 4142.75 2467.04C4140 2467.16 4136.7 2467.18 4133.82 2466.58C4132.67 2466.34 4129.46 2465.62 4126.64 2463.06C4124.98 2461.56 4123.27 2459.24 4122.59 2456.07C4122 2453.37 4122.35 2450.96 4122.97 2449.1C4122.98 2448.98 4123.01 2448.8 4123.03 2448.57C4123.12 2447.63 4123.19 2446.21 4123.2 2444.26C4123.24 2440.38 4123.06 2435.1 4122.68 2428.62C4121.94 2415.72 4120.47 2398.78 4118.61 2380.28C4115.37 2347.84 4111 2311 4107.54 2283.53H3877.91L3820.94 2456.86L3817.62 2466.94L3807.14 2465.31L3546.21 2424.72L3528.6 2421.98L3537.17 2406.35L3903.92 1738.09L3907.12 1732.27L3913.73 1731.66L4117.4 1712.81L4126.16 1712L4129.88 1719.98ZM3960.16 1968.97L3956.97 1976.7L3915.29 2077.44L3908.14 2094.72H4096.65L4092.6 2079.09L4066.51 1978.34L4064.08 1968.97H3960.16Z" fill="#009BD9"/>
<path d="M4129.88 1719.98L4141.21 1714.7L4141.21 1714.7L4129.88 1719.98ZM4442.27 2390.78L4430.94 2396.06L4430.94 2396.06L4442.27 2390.78ZM4448.77 2404.74L4451.61 2416.91L4466.6 2413.42L4460.1 2399.46L4448.77 2404.74ZM4433.78 2408.23L4430.94 2396.06L4430.94 2396.06L4433.78 2408.23ZM4246.07 2449.57L4243.58 2437.32V2437.32L4246.07 2449.57ZM4167.03 2464.25L4165.15 2451.89H4165.15L4167.03 2464.25ZM4142.75 2467.04L4143.29 2479.53H4143.29L4142.75 2467.04ZM4133.82 2466.58L4131.27 2478.82L4131.27 2478.82L4133.82 2466.58ZM4126.64 2463.06L4118.24 2472.32L4118.24 2472.32L4126.64 2463.06ZM4122.59 2456.07L4110.37 2458.72L4110.37 2458.73L4122.59 2456.07ZM4122.97 2449.1L4134.84 2453.02L4135.2 2451.93L4135.35 2450.79L4122.97 2449.1ZM4123.03 2448.57L4135.47 2449.76L4135.47 2449.76L4123.03 2448.57ZM4123.2 2444.26L4110.7 2444.16V2444.16L4123.2 2444.26ZM4122.68 2428.62L4135.16 2427.91V2427.9L4122.68 2428.62ZM4118.61 2380.28L4106.18 2381.53V2381.53L4118.61 2380.28ZM4107.54 2283.53L4119.94 2281.97L4118.56 2271.03H4107.54V2283.53ZM3877.91 2283.53V2271.03H3868.86L3866.03 2279.63L3877.91 2283.53ZM3820.94 2456.86L3809.06 2452.96L3809.06 2452.96L3820.94 2456.86ZM3817.62 2466.94L3815.7 2479.29L3826.18 2480.92L3829.5 2470.84L3817.62 2466.94ZM3807.14 2465.31L3809.06 2452.96H3809.06L3807.14 2465.31ZM3546.21 2424.72L3544.29 2437.07H3544.29L3546.21 2424.72ZM3528.6 2421.98L3517.64 2415.96L3509.06 2431.59L3526.68 2434.33L3528.6 2421.98ZM3537.17 2406.35L3548.13 2412.37L3548.13 2412.37L3537.17 2406.35ZM3903.92 1738.09L3892.96 1732.07L3892.96 1732.07L3903.92 1738.09ZM3907.12 1732.27L3905.97 1719.82L3899.35 1720.43L3896.16 1726.25L3907.12 1732.27ZM3913.73 1731.66L3914.88 1744.1L3914.88 1744.1L3913.73 1731.66ZM4117.4 1712.81L4116.25 1700.36L4116.25 1700.36L4117.4 1712.81ZM4126.16 1712L4137.5 1706.72L4133.78 1698.74L4125.01 1699.55L4126.16 1712ZM3960.16 1968.97V1956.47H3951.8L3948.61 1964.2L3960.16 1968.97ZM3956.97 1976.7L3945.41 1971.92L3945.41 1971.92L3956.97 1976.7ZM3915.29 2077.44L3903.74 2072.67V2072.67L3915.29 2077.44ZM3908.14 2094.72L3896.59 2089.94L3889.44 2107.22H3908.14V2094.72ZM4096.65 2094.72V2107.22H4112.8L4108.75 2091.59L4096.65 2094.72ZM4092.6 2079.09L4104.7 2075.95L4104.7 2075.95L4092.6 2079.09ZM4066.51 1978.34L4054.4 1981.47L4054.4 1981.47L4066.51 1978.34ZM4064.08 1968.97L4076.18 1965.84L4073.76 1956.47H4064.08V1968.97ZM4129.88 1719.98L4118.55 1725.26L4430.94 2396.06L4442.27 2390.78L4453.6 2385.51L4141.21 1714.7L4129.88 1719.98ZM4442.27 2390.78L4430.94 2396.06L4437.44 2410.02L4448.77 2404.74L4460.1 2399.46L4453.6 2385.51L4442.27 2390.78ZM4448.77 2404.74L4445.93 2392.56L4430.94 2396.06L4433.78 2408.23L4436.61 2420.41L4451.61 2416.91L4448.77 2404.74ZM4433.78 2408.23L4430.94 2396.06C4380.69 2407.78 4305.58 2424.68 4243.58 2437.32L4246.07 2449.57L4248.57 2461.82C4310.89 2449.12 4386.24 2432.15 4436.62 2420.41L4433.78 2408.23ZM4246.07 2449.57L4243.58 2437.32C4212.58 2443.64 4184.85 2448.89 4165.15 2451.89L4167.03 2464.25L4168.92 2476.6C4189.26 2473.5 4217.49 2468.15 4248.57 2461.82L4246.07 2449.57ZM4167.03 2464.25L4165.15 2451.89C4155.3 2453.39 4147.46 2454.33 4142.21 2454.55L4142.75 2467.04L4143.29 2479.53C4149.96 2479.24 4158.92 2478.12 4168.92 2476.6L4167.03 2464.25ZM4142.75 2467.04L4142.21 2454.55C4139.61 2454.67 4137.62 2454.6 4136.36 2454.34L4133.82 2466.58L4131.27 2478.82C4135.77 2479.75 4140.4 2479.65 4143.29 2479.53L4142.75 2467.04ZM4133.82 2466.58L4136.36 2454.34C4136.08 2454.28 4135.85 2454.23 4135.58 2454.12C4135.31 2454.01 4135.14 2453.89 4135.04 2453.8L4126.64 2463.06L4118.24 2472.32C4123.61 2477.19 4129.56 2478.46 4131.27 2478.82L4133.82 2466.58ZM4126.64 2463.06L4135.04 2453.8C4134.98 2453.75 4134.92 2453.68 4134.88 2453.61C4134.85 2453.56 4134.82 2453.5 4134.8 2453.42L4122.59 2456.07L4110.37 2458.73C4111.72 2464.93 4115.06 2469.43 4118.24 2472.32L4126.64 2463.06ZM4122.59 2456.07L4134.8 2453.42C4134.79 2453.35 4134.79 2453.29 4134.79 2453.24C4134.79 2453.18 4134.81 2453.1 4134.84 2453.02L4122.97 2449.1L4111.1 2445.18C4109.93 2448.73 4109.22 2453.44 4110.37 2458.72L4122.59 2456.07ZM4122.97 2449.1L4135.35 2450.79C4135.39 2450.54 4135.43 2450.19 4135.47 2449.76L4123.03 2448.57L4110.59 2447.37C4110.58 2447.39 4110.58 2447.4 4110.58 2447.41C4110.58 2447.41 4110.58 2447.41 4110.58 2447.41C4110.58 2447.4 4110.58 2447.4 4110.58 2447.41L4122.97 2449.1ZM4123.03 2448.57L4135.47 2449.76C4135.61 2448.32 4135.69 2446.51 4135.7 2444.36L4123.2 2444.26L4110.7 2444.16C4110.69 2445.91 4110.63 2446.93 4110.59 2447.37L4123.03 2448.57ZM4123.2 2444.26L4135.7 2444.36C4135.74 2440.08 4135.54 2434.49 4135.16 2427.91L4122.68 2428.62L4110.2 2429.34C4110.57 2435.71 4110.73 2440.68 4110.7 2444.16L4123.2 2444.26ZM4122.68 2428.62L4135.16 2427.9C4134.4 2414.74 4132.91 2397.6 4131.05 2379.04L4118.61 2380.28L4106.18 2381.53C4108.02 2399.97 4109.48 2416.7 4110.2 2429.34L4122.68 2428.62ZM4118.61 2380.28L4131.05 2379.04C4127.79 2346.45 4123.41 2309.5 4119.94 2281.97L4107.54 2283.53L4095.14 2285.1C4098.59 2312.5 4102.94 2349.23 4106.18 2381.53L4118.61 2380.28ZM4107.54 2283.53V2271.03H3877.91V2283.53V2296.03H4107.54V2283.53ZM3877.91 2283.53L3866.03 2279.63L3809.06 2452.96L3820.94 2456.86L3832.81 2460.76L3889.78 2287.44L3877.91 2283.53ZM3820.94 2456.86L3809.06 2452.96L3805.75 2463.04L3817.62 2466.94L3829.5 2470.84L3832.81 2460.76L3820.94 2456.86ZM3817.62 2466.94L3819.54 2454.59L3809.06 2452.96L3807.14 2465.31L3805.22 2477.66L3815.7 2479.29L3817.62 2466.94ZM3807.14 2465.31L3809.06 2452.96L3548.13 2412.37L3546.21 2424.72L3544.29 2437.07L3805.22 2477.66L3807.14 2465.31ZM3546.21 2424.72L3548.13 2412.37L3530.52 2409.63L3528.6 2421.98L3526.68 2434.33L3544.29 2437.07L3546.21 2424.72ZM3528.6 2421.98L3539.56 2427.99L3548.13 2412.37L3537.17 2406.35L3526.22 2400.34L3517.64 2415.96L3528.6 2421.98ZM3537.17 2406.35L3548.13 2412.37L3914.88 1744.1L3903.92 1738.09L3892.96 1732.07L3526.22 2400.34L3537.17 2406.35ZM3903.92 1738.09L3914.88 1744.1L3918.08 1738.28L3907.12 1732.27L3896.16 1726.25L3892.96 1732.07L3903.92 1738.09ZM3907.12 1732.27L3908.27 1744.71L3914.88 1744.1L3913.73 1731.66L3912.58 1719.21L3905.97 1719.82L3907.12 1732.27ZM3913.73 1731.66L3914.88 1744.1L4118.55 1725.26L4117.4 1712.81L4116.25 1700.36L3912.58 1719.21L3913.73 1731.66ZM4117.4 1712.81L4118.55 1725.26L4127.32 1724.45L4126.16 1712L4125.01 1699.55L4116.25 1700.36L4117.4 1712.81ZM4126.16 1712L4114.83 1717.28L4118.55 1725.26L4129.88 1719.98L4141.21 1714.7L4137.5 1706.72L4126.16 1712ZM3960.16 1968.97L3948.61 1964.2L3945.41 1971.92L3956.97 1976.7L3968.52 1981.47L3971.71 1973.75L3960.16 1968.97ZM3956.97 1976.7L3945.41 1971.92L3903.74 2072.67L3915.29 2077.44L3926.84 2082.22L3968.52 1981.47L3956.97 1976.7ZM3915.29 2077.44L3903.74 2072.67L3896.59 2089.94L3908.14 2094.72L3919.69 2099.5L3926.84 2082.22L3915.29 2077.44ZM3908.14 2094.72V2107.22H4096.65V2094.72V2082.22H3908.14V2094.72ZM4096.65 2094.72L4108.75 2091.59L4104.7 2075.95L4092.6 2079.09L4080.5 2082.22L4084.55 2097.86L4096.65 2094.72ZM4092.6 2079.09L4104.7 2075.95L4078.61 1975.21L4066.51 1978.34L4054.4 1981.47L4080.5 2082.22L4092.6 2079.09ZM4066.51 1978.34L4078.61 1975.21L4076.18 1965.84L4064.08 1968.97L4051.98 1972.11L4054.4 1981.47L4066.51 1978.34ZM4064.08 1968.97V1956.47H3960.16V1968.97V1981.47H4064.08V1968.97Z" fill="black"/>
<path d="M3133.88 1891.05L3178.46 1715.65H3687.27L3660.45 1953.38L3378.87 1928.38V2009.55L3609.35 2002.31L3570.94 2217.21L3378.87 2195.47L3420.54 2460.38H3153.45L3133.88 1891.05Z" fill="#44AF35" stroke="black" stroke-width="25"/>
<path d="M4389.24 1954.11L4439.97 1715.65H4928.85L4891.89 1920.77L4645.45 1954.11V2028.4H4850.57L4840.79 2190.75L4657.05 2204.53L4674.81 2269.03H4909.28L4993.36 2460.74H4439.97L4389.24 1954.11Z" fill="#E62310" stroke="black" stroke-width="25"/>
<path d="M4980.67 2442.99L4952.41 1717.46L5226.74 1750.8L5198.48 2188.94L5501.08 2155.6L5529.35 2381.38L4980.67 2442.99Z" fill="#44AF35" stroke="black" stroke-width="25"/>
</svg>
